<svg xmlns="http://www.w3.org/2000/svg" xmlns:xlink="http://www.w3.org/1999/xlink" width="1920" zoomAndPan="magnify" viewBox="0 0 1440 809.999993" height="1080" preserveAspectRatio="xMidYMid meet" version="1.0"><defs><clipPath id="7f9ba4a2f7"><path d="M 0 0 L 627.421875 0 L 627.421875 810 L 0 810 Z M 0 0 " clip-rule="nonzero"/></clipPath><clipPath id="7dd6a18112"><path d="M 174.410156 -48.007812 C -75.777344 -48.007812 -278.597656 154.808594 -278.597656 405 C -278.597656 655.191406 -75.777344 858.007812 174.410156 858.007812 C 424.601562 858.007812 627.421875 655.191406 627.421875 405 C 627.421875 154.808594 424.601562 -48.007812 174.410156 -48.007812 Z M 174.410156 -48.007812 " clip-rule="nonzero"/></clipPath><clipPath id="c9f1ab87ac"><path d="M 108.105469 0 L 1068.332031 0 L 1068.332031 810 L 108.105469 810 Z M 108.105469 0 " clip-rule="nonzero"/></clipPath><clipPath id="28cd54baae"><path d="M 588.21875 -75.113281 C 323.058594 -75.113281 108.105469 139.839844 108.105469 405 C 108.105469 670.160156 323.058594 885.113281 588.21875 885.113281 C 853.378906 885.113281 1068.332031 670.160156 1068.332031 405 C 1068.332031 139.839844 853.378906 -75.113281 588.21875 -75.113281 Z M 588.21875 -75.113281 " clip-rule="nonzero"/></clipPath><clipPath id="213c33d23e"><path d="M 281.722656 0 L 1241.953125 0 L 1241.953125 810 L 281.722656 810 Z M 281.722656 0 " clip-rule="nonzero"/></clipPath><clipPath id="acccc97783"><path d="M 761.835938 -75.113281 C 496.679688 -75.113281 281.722656 139.839844 281.722656 405 C 281.722656 670.160156 496.679688 885.113281 761.835938 885.113281 C 1026.996094 885.113281 1241.953125 670.160156 1241.953125 405 C 1241.953125 139.839844 1026.996094 -75.113281 761.835938 -75.113281 Z M 761.835938 -75.113281 " clip-rule="nonzero"/></clipPath><clipPath id="0307312aed"><path d="M 479.773438 0 L 1440 0 L 1440 810 L 479.773438 810 Z M 479.773438 0 " clip-rule="nonzero"/></clipPath><clipPath id="e82c0f5347"><path d="M 959.886719 -75.113281 C 694.726562 -75.113281 479.773438 139.839844 479.773438 405 C 479.773438 670.160156 694.726562 885.113281 959.886719 885.113281 C 1225.046875 885.113281 1440 670.160156 1440 405 C 1440 139.839844 1225.046875 -75.113281 959.886719 -75.113281 Z M 959.886719 -75.113281 " clip-rule="nonzero"/></clipPath><clipPath id="8fdcdb782c"><path d="M 674.128906 0 L 1440 0 L 1440 810 L 674.128906 810 Z M 674.128906 0 " clip-rule="nonzero"/></clipPath><clipPath id="d0900231d1"><path d="M 1154.246094 -75.113281 C 889.085938 -75.113281 674.128906 139.839844 674.128906 405 C 674.128906 670.160156 889.085938 885.113281 1154.246094 885.113281 C 1419.402344 885.113281 1634.359375 670.160156 1634.359375 405 C 1634.359375 139.839844 1419.402344 -75.113281 1154.246094 -75.113281 Z M 1154.246094 -75.113281 " clip-rule="nonzero"/></clipPath><clipPath id="4d3093f918"><path d="M 937.484375 0 L 1440 0 L 1440 810 L 937.484375 810 Z M 937.484375 0 " clip-rule="nonzero"/></clipPath><clipPath id="5c9d3c3e0c"><path d="M 1417.597656 -75.113281 C 1152.4375 -75.113281 937.484375 139.839844 937.484375 405 C 937.484375 670.160156 1152.4375 885.113281 1417.597656 885.113281 C 1682.757812 885.113281 1897.710938 670.160156 1897.710938 405 C 1897.710938 139.839844 1682.757812 -75.113281 1417.597656 -75.113281 Z M 1417.597656 -75.113281 " clip-rule="nonzero"/></clipPath><clipPath id="0c8ef26120"><path d="M 1101.664062 0 L 1440 0 L 1440 810 L 1101.664062 810 Z M 1101.664062 0 " clip-rule="nonzero"/></clipPath><clipPath id="1258e9d139"><path d="M 1581.777344 -75.113281 C 1316.617188 -75.113281 1101.664062 139.839844 1101.664062 405 C 1101.664062 670.160156 1316.617188 885.113281 1581.777344 885.113281 C 1846.9375 885.113281 2061.890625 670.160156 2061.890625 405 C 2061.890625 139.839844 1846.9375 -75.113281 1581.777344 -75.113281 Z M 1581.777344 -75.113281 " clip-rule="nonzero"/></clipPath><clipPath id="a4471032e6"><path d="M 866.085938 0 L 1440 0 L 1440 810 L 866.085938 810 Z M 866.085938 0 " clip-rule="nonzero"/></clipPath><clipPath id="bdda262d67"><path d="M 1346.199219 -75.113281 C 1081.039062 -75.113281 866.085938 139.839844 866.085938 405 C 866.085938 670.160156 1081.039062 885.113281 1346.199219 885.113281 C 1611.359375 885.113281 1826.3125 670.160156 1826.3125 405 C 1826.3125 139.839844 1611.359375 -75.113281 1346.199219 -75.113281 Z M 1346.199219 -75.113281 " clip-rule="nonzero"/></clipPath><clipPath id="09c799d887"><path d="M 1079.261719 0 L 1440 0 L 1440 810 L 1079.261719 810 Z M 1079.261719 0 " clip-rule="nonzero"/></clipPath><clipPath id="abc09681a1"><path d="M 1559.375 -75.113281 C 1294.214844 -75.113281 1079.261719 139.839844 1079.261719 405 C 1079.261719 670.160156 1294.214844 885.113281 1559.375 885.113281 C 1824.535156 885.113281 2039.488281 670.160156 2039.488281 405 C 2039.488281 139.839844 1824.535156 -75.113281 1559.375 -75.113281 Z M 1559.375 -75.113281 " clip-rule="nonzero"/></clipPath></defs><rect x="-144" width="1728" fill="#ffffff" y="-80.999999" height="971.999992" fill-opacity="1"/><rect x="-144" width="1728" fill="#ffffff" y="-80.999999" height="971.999992" fill-opacity="1"/><g clip-path="url(#7f9ba4a2f7)"><g clip-path="url(#7dd6a18112)"><path fill="#3e7ff9" d="M -278.597656 -48.007812 L 627.421875 -48.007812 L 627.421875 858.007812 L -278.597656 858.007812 Z M -278.597656 -48.007812 " fill-opacity="1" fill-rule="nonzero"/></g></g><g clip-path="url(#c9f1ab87ac)"><g clip-path="url(#28cd54baae)"><path fill="#3f74ff" d="M 108.105469 -75.113281 L 1068.332031 -75.113281 L 1068.332031 885.113281 L 108.105469 885.113281 Z M 108.105469 -75.113281 " fill-opacity="1" fill-rule="nonzero"/></g></g><g clip-path="url(#213c33d23e)"><g clip-path="url(#acccc97783)"><path fill="#3e7ff9" d="M 281.722656 -75.113281 L 1241.953125 -75.113281 L 1241.953125 885.113281 L 281.722656 885.113281 Z M 281.722656 -75.113281 " fill-opacity="1" fill-rule="nonzero"/></g></g><g clip-path="url(#0307312aed)"><g clip-path="url(#e82c0f5347)"><path fill="#3f74ff" d="M 479.773438 -75.113281 L 1440 -75.113281 L 1440 885.113281 L 479.773438 885.113281 Z M 479.773438 -75.113281 " fill-opacity="1" fill-rule="nonzero"/></g></g><g clip-path="url(#8fdcdb782c)"><g clip-path="url(#d0900231d1)"><path fill="#3e7ff9" d="M 674.128906 -75.113281 L 1634.359375 -75.113281 L 1634.359375 885.113281 L 674.128906 885.113281 Z M 674.128906 -75.113281 " fill-opacity="1" fill-rule="nonzero"/></g></g><g clip-path="url(#4d3093f918)"><g clip-path="url(#5c9d3c3e0c)"><path fill="#3f74ff" d="M 937.484375 -75.113281 L 1897.710938 -75.113281 L 1897.710938 885.113281 L 937.484375 885.113281 Z M 937.484375 -75.113281 " fill-opacity="1" fill-rule="nonzero"/></g></g><g clip-path="url(#0c8ef26120)"><g clip-path="url(#1258e9d139)"><path fill="#3e7ff9" d="M 1101.664062 -75.113281 L 2061.890625 -75.113281 L 2061.890625 885.113281 L 1101.664062 885.113281 Z M 1101.664062 -75.113281 " fill-opacity="1" fill-rule="nonzero"/></g></g><g clip-path="url(#a4471032e6)"><g clip-path="url(#bdda262d67)"><path fill="#3f74ff" d="M 866.085938 -75.113281 L 1826.3125 -75.113281 L 1826.3125 885.113281 L 866.085938 885.113281 Z M 866.085938 -75.113281 " fill-opacity="1" fill-rule="nonzero"/></g></g><g clip-path="url(#09c799d887)"><g clip-path="url(#abc09681a1)"><path fill="#3e7ff9" d="M 1079.261719 -75.113281 L 2039.488281 -75.113281 L 2039.488281 885.113281 L 1079.261719 885.113281 Z M 1079.261719 -75.113281 " fill-opacity="1" fill-rule="nonzero"/></g></g></svg>