<svg id="visual" viewBox="0 0 1920 1080" width="1920" height="1080" xmlns="http://www.w3.org/2000/svg" xmlns:xlink="http://www.w3.org/1999/xlink" version="1.1"><rect x="0" y="0" width="1920" height="1080" fill="#ffffff"></rect><path d="M1054 0L1011.2 60C968.3 120 882.7 240 893.2 360C903.7 480 1010.3 600 1069.3 720C1128.3 840 1139.7 960 1145.3 1020L1151 1080L0 1080L0 1020C0 960 0 840 0 720C0 600 0 480 0 360C0 240 0 120 0 60L0 0Z" fill="#e86352"></path><path d="M605 0L603.2 60C601.3 120 597.7 240 610.3 360C623 480 652 600 663.8 720C675.7 840 670.3 960 667.7 1020L665 1080L0 1080L0 1020C0 960 0 840 0 720C0 600 0 480 0 360C0 240 0 120 0 60L0 0Z" fill="#ed614e"></path><path d="M616 0L591 60C566 120 516 240 517.3 360C518.7 480 571.3 600 577.7 720C584 840 544 960 524 1020L504 1080L0 1080L0 1020C0 960 0 840 0 720C0 600 0 480 0 360C0 240 0 120 0 60L0 0Z" fill="#f15f49"></path><path d="M517 0L513.8 60C510.7 120 504.3 240 508.7 360C513 480 528 600 504.3 720C480.7 840 418.3 960 387.2 1020L356 1080L0 1080L0 1020C0 960 0 840 0 720C0 600 0 480 0 360C0 240 0 120 0 60L0 0Z" fill="#f55d44"></path><path d="M300 0L305.2 60C310.3 120 320.7 240 315.3 360C310 480 289 600 294.3 720C299.7 840 331.3 960 347.2 1020L363 1080L0 1080L0 1020C0 960 0 840 0 720C0 600 0 480 0 360C0 240 0 120 0 60L0 0Z" fill="#f95a3f"></path></svg>